<svg xmlns="http://www.w3.org/2000/svg" style="display:none;">
  <symbol id="icon-home" viewBox="0 0 16 16">
    <path d="M6.5 2a.5.5 0 0 0 0 1h3a.5.5 0 0 0 0-1zM11 8a3 3 0 1 1-6 0 3 3 0 0 1 6 0"/>
    <path d="M4.5 0A2.5 2.5 0 0 0 2 2.5V14a2 2 0 0 0 2 2h8a2 2 0 0 0 2-2V2.5A2.5 2.5 0 0 0 11.5 0zM3 2.5A1.5 1.5 0 0 1 4.5 1h7A1.5 1.5 0 0 1 13 2.5v10.795a4.2 4.2 0 0 0-.776-.492C11.392 12.387 10.063 12 8 12s-3.392.387-4.224.803a4.2 4.2 0 0 0-.776.492z"/>
  </symbol>
  <symbol id="icon-reg" viewBox="0 0 16 16">
    <path d="M5 10.5a.5.5 0 0 1 .5-.5h2a.5.5 0 0 1 0 1h-2a.5.5 0 0 1-.5-.5m0-2a.5.5 0 0 1 .5-.5h5a.5.5 0 0 1 0 1h-5a.5.5 0 0 1-.5-.5m0-2a.5.5 0 0 1 .5-.5h5a.5.5 0 0 1 0 1h-5a.5.5 0 0 1-.5-.5m0-2a.5.5 0 0 1 .5-.5h5a.5.5 0 0 1 0 1h-5a.5.5 0 0 1-.5-.5"/>
    <path d="M3 0h10a2 2 0 0 1 2 2v12a2 2 0 0 1-2 2H3a2 2 0 0 1-2-2v-1h1v1a1 1 0 0 0 1 1h10a1 1 0 0 0 1-1V2a1 1 0 0 0-1-1H3a1 1 0 0 0-1 1v1H1V2a2 2 0 0 1 2-2"/>
    <path d="M1 5v-.5a.5.5 0 0 1 1 0V5h.5a.5.5 0 0 1 0 1h-2a.5.5 0 0 1 0-1zm0 3v-.5a.5.5 0 0 1 1 0V8h.5a.5.5 0 0 1 0 1h-2a.5.5 0 0 1 0-1zm0 3v-.5a.5.5 0 0 1 1 0v.5h.5a.5.5 0 0 1 0 1h-2a.5.5 0 0 1 0-1z"/>
  </symbol>
  <symbol id="icon-finance" viewBox="0 0 16 16">
    <path d="M12 1a1 1 0 0 1 1 1v12a1 1 0 0 1-1 1H4a1 1 0 0 1-1-1V2a1 1 0 0 1 1-1zM4 0a2 2 0 0 0-2 2v12a2 2 0 0 0 2 2h8a2 2 0 0 0 2-2V2a2 2 0 0 0-2-2z"/>
    <path d="M4 2.5a.5.5 0 0 1 .5-.5h7a.5.5 0 0 1 .5.5v2a.5.5 0 0 1-.5.5h-7a.5.5 0 0 1-.5-.5zm0 4a.5.5 0 0 1 .5-.5h1a.5.5 0 0 1 .5.5v1a.5.5 0 0 1-.5.5h-1a.5.5 0 0 1-.5-.5zm0 3a.5.5 0 0 1 .5-.5h1a.5.5 0 0 1 .5.5v1a.5.5 0 0 1-.5.5h-1a.5.5 0 0 1-.5-.5zm0 3a.5.5 0 0 1 .5-.5h1a.5.5 0 0 1 .5.5v1a.5.5 0 0 1-.5.5h-1a.5.5 0 0 1-.5-.5zm3-6a.5.5 0 0 1 .5-.5h1a.5.5 0 0 1 .5.5v1a.5.5 0 0 1-.5.5h-1a.5.5 0 0 1-.5-.5zm0 3a.5.5 0 0 1 .5-.5h1a.5.5 0 0 1 .5.5v1a.5.5 0 0 1-.5.5h-1a.5.5 0 0 1-.5-.5zm0 3a.5.5 0 0 1 .5-.5h1a.5.5 0 0 1 .5.5v1a.5.5 0 0 1-.5.5h-1a.5.5 0 0 1-.5-.5zm3-6a.5.5 0 0 1 .5-.5h1a.5.5 0 0 1 .5.5v1a.5.5 0 0 1-.5.5h-1a.5.5 0 0 1-.5-.5zm0 3a.5.5 0 0 1 .5-.5h1a.5.5 0 0 1 .5.5v4a.5.5 0 0 1-.5.5h-1a.5.5 0 0 1-.5-.5z"/>                
  </symbol>
  <symbol id="icon-grades" viewBox="0 0 16 16">
    <path d="M11 6.5a.5.5 0 0 1 .5-.5h1a.5.5 0 0 1 .5.5v1a.5.5 0 0 1-.5.5h-1a.5.5 0 0 1-.5-.5zm-3 0a.5.5 0 0 1 .5-.5h1a.5.5 0 0 1 .5.5v1a.5.5 0 0 1-.5.5h-1a.5.5 0 0 1-.5-.5zm-5 3a.5.5 0 0 1 .5-.5h1a.5.5 0 0 1 .5.5v1a.5.5 0 0 1-.5.5h-1a.5.5 0 0 1-.5-.5zm3 0a.5.5 0 0 1 .5-.5h1a.5.5 0 0 1 .5.5v1a.5.5 0 0 1-.5.5h-1a.5.5 0 0 1-.5-.5z"/>
    <path d="M3.5 0a.5.5 0 0 1 .5.5V1h8V.5a.5.5 0 0 1 1 0V1h1a2 2 0 0 1 2 2v11a2 2 0 0 1-2 2H2a2 2 0 0 1-2-2V3a2 2 0 0 1 2-2h1V.5a.5.5 0 0 1 .5-.5M1 4v10a1 1 0 0 0 1 1h12a1 1 0 0 0 1-1V4z"/>                
  </symbol>
  <symbol id="icon-services" viewBox="0 0 16 16">
    <path d="M4 2.5a.5.5 0 0 1 .5-.5h1a.5.5 0 0 1 .5.5v1a.5.5 0 0 1-.5.5h-1a.5.5 0 0 1-.5-.5zm3 0a.5.5 0 0 1 .5-.5h1a.5.5 0 0 1 .5.5v1a.5.5 0 0 1-.5.5h-1a.5.5 0 0 1-.5-.5zm3.5-.5a.5.5 0 0 0-.5.5v1a.5.5 0 0 0 .5.5h1a.5.5 0 0 0 .5-.5v-1a.5.5 0 0 0-.5-.5zM4 5.5a.5.5 0 0 1 .5-.5h1a.5.5 0 0 1 .5.5v1a.5.5 0 0 1-.5.5h-1a.5.5 0 0 1-.5-.5zM7.5 5a.5.5 0 0 0-.5.5v1a.5.5 0 0 0 .5.5h1a.5.5 0 0 0 .5-.5v-1a.5.5 0 0 0-.5-.5zm2.5.5a.5.5 0 0 1 .5-.5h1a.5.5 0 0 1 .5.5v1a.5.5 0 0 1-.5.5h-1a.5.5 0 0 1-.5-.5zM4.5 8a.5.5 0 0 0-.5.5v1a.5.5 0 0 0 .5.5h1a.5.5 0 0 0 .5-.5v-1a.5.5 0 0 0-.5-.5zm2.5.5a.5.5 0 0 1 .5-.5h1a.5.5 0 0 1 .5.5v1a.5.5 0 0 1-.5.5h-1a.5.5 0 0 1-.5-.5zm3.5-.5a.5.5 0 0 0-.5.5v1a.5.5 0 0 0 .5.5h1a.5.5 0 0 0 .5-.5v-1a.5.5 0 0 0-.5-.5z"/>
    <path d="M2 1a1 1 0 0 1 1-1h10a1 1 0 0 1 1 1v14a1 1 0 0 1-1 1H3a1 1 0 0 1-1-1zm11 0H3v14h3v-2.5a.5.5 0 0 1 .5-.5h3a.5.5 0 0 1 .5.5V15h3z"/>
 </symbol>
 <symbol id="icon-logout" viewBox="0 0 16 16">
    <path fill-rule="evenodd" d="M6 3.5a.5.5 0 0 1 .5-.5h8a.5.5 0 0 1 .5.5v9a.5.5 0 0 1-.5.5h-8a.5.5 0 0 1-.5-.5v-2a.5.5 0 0 0-1 0v2A1.5 1.5 0 0 0 6.5 14h8a1.5 1.5 0 0 0 1.5-1.5v-9A1.5 1.5 0 0 0 14.5 2h-8A1.5 1.5 0 0 0 5 3.5v2a.5.5 0 0 0 1 0z"/>
    <path fill-rule="evenodd" d="M11.854 8.354a.5.5 0 0 0 0-.708l-3-3a.5.5 0 1 0-.708.708L10.293 7.5H1.5a.5.5 0 0 0 0 1h8.793l-2.147 2.146a.5.5 0 0 0 .708.708z"/>                
</symbol>
<symbol id="icon-bell" viewBox="0 0 16 16">
    <path fill-rule="evenodd" d="M8 16a2 2 0 0 0 2-2H6a2 2 0 0 0 2 2m.995-14.901a1 1 0 1 0-1.99 0A5 5 0 0 0 3 6c0 1.098-.5 6-2 7h14c-1.5-1-2-5.902-2-7 0-2.42-1.72-4.44-4.005-4.901"/>                
</symbol>
</svg>